# xmcd
#
# Track frame offsets: 
#        150
#        33222
#        55303
#        87575
#        98869
#        117407
#        136793
#        154405
#        175477
#        187993
#        204917
#        233009
#        243548
#        265516
#        291675
#
# Disc length: 3893 seconds
#
# Revision: 1
# Processed by: cddbd v1.5.2PL0 Copyright (c) Steve Scherf et al.
# Submitted via: ExactAudioCopy v0.99pb5
#
DISCID=d50f330f
DTITLE=Various Artist - bar tunes 3
DYEAR=2007
DGENRE=Jazz
TTITLE0=The Juju Orchestra - Kind of latin rhythm
TTITLE1=Bebo Best and The super lounge Orchestra - Doce vita
TTITLE2=Mario Biondi and The high five Quintet - This is what you are
TTITLE3=Saint Privat - Poisson rouge
TTITLE4=BatterieDu Verre - Jitterbug
TTITLE5=Club Des Belugas feat. lain MacKenzie - Frankie
TTITLE6=Tape Five - Soulsalicious
TTITLE7=Parov Stelar feat. Gabriella Hänninen - Charleston Butterfly
TTITLE8=Koop - The moonbounce
TTITLE9=Free the Robots - Jazzhole
TTITLE10=Thomas Siffling Trio - The energy of a small woman
TTITLE11=The Frank Cunimondo Trio introducing Lynn Marino
TTITLE12=Mo´ Horizons - Ay y N´ama (DJ Day Remix)
TTITLE13=The Quantic Soul Orchestra - Paintings and Journeys
TTITLE14=No Name - n.a.
EXTD=YEAR: 2007
EXTT0=
EXTT1=
EXTT2=
EXTT3=
EXTT4=
EXTT5=
EXTT6=
EXTT7=
EXTT8=
EXTT9=
EXTT10=
EXTT11=
EXTT12=
EXTT13=
EXTT14=
PLAYORDER=
